<svg width="524" height="524" viewBox="0 0 524 524" fill="none" xmlns="http://www.w3.org/2000/svg">
<g clip-path="url(#clip0_9_2)">
<rect width="524" height="524" fill="white"/>
<rect width="524" height="115.673" fill="#F8A348"/>
<path d="M19.6408 24.9844C18.584 24.0392 18.819 22.325 20.0911 21.6991L27.6721 17.9691C28.9442 17.3432 30.4457 18.203 30.5497 19.6169L31.3773 30.8679C31.5093 32.662 29.3902 33.7046 28.0494 32.5053L19.6408 24.9844Z" fill="#E8EDB5"/>
<path d="M264.808 20.9984C264.805 19.5807 266.238 18.6104 267.553 19.1389L275.393 22.2884C276.709 22.8168 277.072 24.5085 276.089 25.5304L268.27 33.6623C267.023 34.9591 264.832 34.0787 264.828 32.2798L264.808 20.9984Z" fill="#E8EDB5"/>
<path d="M472.232 23.6713C470.944 23.079 470.664 21.3717 471.696 20.399L477.843 14.6027C478.874 13.63 480.562 14.0098 481.078 15.3304L485.181 25.8393C485.835 27.5151 484.117 29.1353 482.482 28.3838L472.232 23.6713Z" fill="#E8EDB5"/>
<path d="M430.215 86.4858C429.745 87.8233 428.07 88.2604 427.006 87.3235L420.665 81.7402C419.601 80.8033 419.823 79.0874 421.09 78.4516L431.173 73.3921C432.781 72.5853 434.553 74.1459 433.957 75.8431L430.215 86.4858Z" fill="#E8EDB5"/>
<path d="M108.556 61.5766C108.948 60.8579 109.943 60.764 110.463 61.3966L113.559 65.1662C114.079 65.7988 113.793 66.7562 113.012 67.0011L106.797 68.95C105.806 69.2608 104.94 68.2071 105.437 67.2952L108.556 61.5766Z" fill="#E8EDB5"/>
<path d="M175.735 23.133C176.347 23.6767 176.215 24.6669 175.481 25.0307L171.111 27.1986C170.378 27.5624 169.509 27.0688 169.446 26.2526L168.947 19.7579C168.868 18.7222 170.09 18.1162 170.866 18.8062L175.735 23.133Z" fill="#E8EDB5"/>
<path d="M375.39 49.1009C375.488 49.9135 374.733 50.5678 373.943 50.3548L369.233 49.0854C368.442 48.8724 368.118 47.9274 368.612 47.2742L372.539 42.0771C373.165 41.2483 374.481 41.6031 374.606 42.6343L375.39 49.1009Z" fill="#E8EDB5"/>
<path d="M234.04 64.5346C233.879 63.7321 234.58 63.0209 235.385 63.1715L240.18 64.0692C240.985 64.2199 241.382 65.1367 240.941 65.8264L237.432 71.3143C236.872 72.1894 235.532 71.9385 235.327 70.9202L234.04 64.5346Z" fill="#E8EDB5"/>
<path d="M323.798 86.2693C324.531 86.635 324.66 87.6255 324.047 88.1677L320.392 91.3986C319.779 91.9408 318.812 91.6903 318.539 90.9186L316.366 84.7778C316.019 83.7986 317.041 82.8954 317.97 83.3595L323.798 86.2693Z" fill="#E8EDB5"/>
<path d="M43.3859 76.6393C43.0623 75.5682 43.9252 74.5098 45.0395 74.6109L51.6803 75.2133C52.7947 75.3144 53.453 76.5107 52.942 77.5061L48.8757 85.4269C48.2273 86.69 46.3711 86.5216 45.9605 85.1625L43.3859 76.6393Z" fill="#E8EDB5"/>
<rect y="115.673" width="524" height="17.3259" fill="#8A9C00"/>
<rect y="132.999" width="524" height="17.3259" fill="#FBCD00"/>
<rect y="150.325" width="104.8" height="11" fill="#009F45"/>
<rect x="104.8" y="150.325" width="104.8" height="11" fill="#008328"/>
<rect x="209.6" y="150.325" width="104.8" height="11" fill="#009F45"/>
<rect x="314.4" y="150.325" width="104.8" height="11" fill="#008328"/>
<rect x="419.2" y="150.325" width="104.8" height="11" fill="#009F45"/>
<rect y="161.325" width="524" height="73.2097" fill="#933614"/>
<rect y="234.535" width="524" height="21.8017" fill="#E8EDB5"/>
<rect width="524" height="69" transform="translate(0 256.337)" fill="#F9A34D"/>
<rect y="325.337" width="524" height="17.3259" fill="#FBCD00"/>
<rect y="342.663" width="524" height="73.2097" fill="#933614"/>
<rect y="415.872" width="524" height="17.3259" fill="#8A9C00"/>
<rect y="433.198" width="524" height="21.8017" fill="#E8EDB5"/>
<rect width="524" height="69" transform="translate(0 455)" fill="#F9A34D"/>
</g>
<defs>
<clipPath id="clip0_9_2">
<rect width="524" height="524" fill="white"/>
</clipPath>
</defs>
</svg>
